<?xml version="1.0" encoding="UTF-8" standalone="no"?>
<!DOCTYPE svg PUBLIC "-//W3C//DTD SVG 1.1//EN"
 "http://www.w3.org/Graphics/SVG/1.1/DTD/svg11.dtd">
<!-- Generated by graphviz version 2.43.0 (0)
 -->
<!-- Title: FinancialStrategyFlow Pages: 1 -->
<svg width="1169pt" height="44pt"
 viewBox="0.00 0.00 1169.00 44.00" xmlns="http://www.w3.org/2000/svg" xmlns:xlink="http://www.w3.org/1999/xlink">
<g id="graph0" class="graph" transform="scale(1 1) rotate(0) translate(4 40)">
<title>FinancialStrategyFlow</title>
<polygon fill="white" stroke="transparent" points="-4,4 -4,-40 1165,-40 1165,4 -4,4"/>
<!-- Start -->
<g id="node1" class="node">
<title>Start</title>
<path fill="none" stroke="#4caf50" d="M62,-36C62,-36 12,-36 12,-36 6,-36 0,-30 0,-24 0,-24 0,-12 0,-12 0,-6 6,0 12,0 12,0 62,0 62,0 68,0 74,-6 74,-12 74,-12 74,-24 74,-24 74,-30 68,-36 62,-36"/>
<text text-anchor="middle" x="37" y="-14.3" font-family="Times,serif" font-size="14.00">项目开始</text>
</g>
<!-- DataPrep -->
<g id="node2" class="node">
<title>DataPrep</title>
<path fill="none" stroke="#4caf50" d="M172,-36C172,-36 122,-36 122,-36 116,-36 110,-30 110,-24 110,-24 110,-12 110,-12 110,-6 116,0 122,0 122,0 172,0 172,0 178,0 184,-6 184,-12 184,-12 184,-24 184,-24 184,-30 178,-36 172,-36"/>
<text text-anchor="middle" x="147" y="-14.3" font-family="Times,serif" font-size="14.00">数据准备</text>
</g>
<!-- Start&#45;&gt;DataPrep -->
<g id="edge1" class="edge">
<title>Start&#45;&gt;DataPrep</title>
<path fill="none" stroke="black" d="M74.26,-18C82.37,-18 91.07,-18 99.52,-18"/>
<polygon fill="black" stroke="black" points="99.65,-21.5 109.65,-18 99.65,-14.5 99.65,-21.5"/>
</g>
<!-- LoRA -->
<g id="node3" class="node">
<title>LoRA</title>
<path fill="none" stroke="#4caf50" d="M295,-36C295,-36 232,-36 232,-36 226,-36 220,-30 220,-24 220,-24 220,-12 220,-12 220,-6 226,0 232,0 232,0 295,0 295,0 301,0 307,-6 307,-12 307,-12 307,-24 307,-24 307,-30 301,-36 295,-36"/>
<text text-anchor="middle" x="263.5" y="-14.3" font-family="Times,serif" font-size="14.00">LoRA 微调</text>
</g>
<!-- DataPrep&#45;&gt;LoRA -->
<g id="edge2" class="edge">
<title>DataPrep&#45;&gt;LoRA</title>
<path fill="none" stroke="black" d="M184.23,-18C192.33,-18 201.08,-18 209.7,-18"/>
<polygon fill="black" stroke="black" points="209.7,-21.5 219.7,-18 209.7,-14.5 209.7,-21.5"/>
</g>
<!-- LoadModel -->
<g id="node4" class="node">
<title>LoadModel</title>
<path fill="none" stroke="#4caf50" d="M447,-36C447,-36 355,-36 355,-36 349,-36 343,-30 343,-24 343,-24 343,-12 343,-12 343,-6 349,0 355,0 355,0 447,0 447,0 453,0 459,-6 459,-12 459,-12 459,-24 459,-24 459,-30 453,-36 447,-36"/>
<text text-anchor="middle" x="401" y="-14.3" font-family="Times,serif" font-size="14.00">加载预训练模型</text>
</g>
<!-- LoRA&#45;&gt;LoadModel -->
<g id="edge3" class="edge">
<title>LoRA&#45;&gt;LoadModel</title>
<path fill="none" stroke="black" d="M307,-18C315.15,-18 323.86,-18 332.56,-18"/>
<polygon fill="black" stroke="black" points="332.75,-21.5 342.75,-18 332.75,-14.5 332.75,-21.5"/>
</g>
<!-- ConfigTrain -->
<g id="node5" class="node">
<title>ConfigTrain</title>
<path fill="none" stroke="#4caf50" d="M585,-36C585,-36 507,-36 507,-36 501,-36 495,-30 495,-24 495,-24 495,-12 495,-12 495,-6 501,0 507,0 507,0 585,0 585,0 591,0 597,-6 597,-12 597,-12 597,-24 597,-24 597,-30 591,-36 585,-36"/>
<text text-anchor="middle" x="546" y="-14.3" font-family="Times,serif" font-size="14.00">配置训练参数</text>
</g>
<!-- LoadModel&#45;&gt;ConfigTrain -->
<g id="edge4" class="edge">
<title>LoadModel&#45;&gt;ConfigTrain</title>
<path fill="none" stroke="black" d="M459.34,-18C467.63,-18 476.18,-18 484.52,-18"/>
<polygon fill="black" stroke="black" points="484.57,-21.5 494.57,-18 484.57,-14.5 484.57,-21.5"/>
</g>
<!-- Train -->
<g id="node6" class="node">
<title>Train</title>
<path fill="none" stroke="#4caf50" d="M695,-36C695,-36 645,-36 645,-36 639,-36 633,-30 633,-24 633,-24 633,-12 633,-12 633,-6 639,0 645,0 645,0 695,0 695,0 701,0 707,-6 707,-12 707,-12 707,-24 707,-24 707,-30 701,-36 695,-36"/>
<text text-anchor="middle" x="670" y="-14.3" font-family="Times,serif" font-size="14.00">启动训练</text>
</g>
<!-- ConfigTrain&#45;&gt;Train -->
<g id="edge5" class="edge">
<title>ConfigTrain&#45;&gt;Train</title>
<path fill="none" stroke="black" d="M597.33,-18C605.73,-18 614.4,-18 622.7,-18"/>
<polygon fill="black" stroke="black" points="622.95,-21.5 632.95,-18 622.95,-14.5 622.95,-21.5"/>
</g>
<!-- SaveCheckpoint -->
<g id="node7" class="node">
<title>SaveCheckpoint</title>
<path fill="none" stroke="#4caf50" d="M819,-36C819,-36 755,-36 755,-36 749,-36 743,-30 743,-24 743,-24 743,-12 743,-12 743,-6 749,0 755,0 755,0 819,0 819,0 825,0 831,-6 831,-12 831,-12 831,-24 831,-24 831,-30 825,-36 819,-36"/>
<text text-anchor="middle" x="787" y="-14.3" font-family="Times,serif" font-size="14.00">保存检查点</text>
</g>
<!-- Train&#45;&gt;SaveCheckpoint -->
<g id="edge6" class="edge">
<title>Train&#45;&gt;SaveCheckpoint</title>
<path fill="none" stroke="black" d="M707.07,-18C715.21,-18 724.03,-18 732.71,-18"/>
<polygon fill="black" stroke="black" points="732.8,-21.5 742.8,-18 732.8,-14.5 732.8,-21.5"/>
</g>
<!-- Inference -->
<g id="node8" class="node">
<title>Inference</title>
<path fill="none" stroke="#4caf50" d="M929,-36C929,-36 879,-36 879,-36 873,-36 867,-30 867,-24 867,-24 867,-12 867,-12 867,-6 873,0 879,0 879,0 929,0 929,0 935,0 941,-6 941,-12 941,-12 941,-24 941,-24 941,-30 935,-36 929,-36"/>
<text text-anchor="middle" x="904" y="-14.3" font-family="Times,serif" font-size="14.00">推理阶段</text>
</g>
<!-- SaveCheckpoint&#45;&gt;Inference -->
<g id="edge7" class="edge">
<title>SaveCheckpoint&#45;&gt;Inference</title>
<path fill="none" stroke="black" d="M831.15,-18C839.49,-18 848.25,-18 856.69,-18"/>
<polygon fill="black" stroke="black" points="856.76,-21.5 866.76,-18 856.76,-14.5 856.76,-21.5"/>
</g>
<!-- Eval -->
<g id="node9" class="node">
<title>Eval</title>
<path fill="none" stroke="#4caf50" d="M1039,-36C1039,-36 989,-36 989,-36 983,-36 977,-30 977,-24 977,-24 977,-12 977,-12 977,-6 983,0 989,0 989,0 1039,0 1039,0 1045,0 1051,-6 1051,-12 1051,-12 1051,-24 1051,-24 1051,-30 1045,-36 1039,-36"/>
<text text-anchor="middle" x="1014" y="-14.3" font-family="Times,serif" font-size="14.00">评估结果</text>
</g>
<!-- Inference&#45;&gt;Eval -->
<g id="edge8" class="edge">
<title>Inference&#45;&gt;Eval</title>
<path fill="none" stroke="black" d="M941.26,-18C949.37,-18 958.07,-18 966.52,-18"/>
<polygon fill="black" stroke="black" points="966.65,-21.5 976.65,-18 966.65,-14.5 966.65,-21.5"/>
</g>
<!-- End -->
<g id="node10" class="node">
<title>End</title>
<path fill="none" stroke="#4caf50" d="M1149,-36C1149,-36 1099,-36 1099,-36 1093,-36 1087,-30 1087,-24 1087,-24 1087,-12 1087,-12 1087,-6 1093,0 1099,0 1099,0 1149,0 1149,0 1155,0 1161,-6 1161,-12 1161,-12 1161,-24 1161,-24 1161,-30 1155,-36 1149,-36"/>
<text text-anchor="middle" x="1124" y="-14.3" font-family="Times,serif" font-size="14.00">项目结束</text>
</g>
<!-- Eval&#45;&gt;End -->
<g id="edge9" class="edge">
<title>Eval&#45;&gt;End</title>
<path fill="none" stroke="black" d="M1051.26,-18C1059.37,-18 1068.07,-18 1076.52,-18"/>
<polygon fill="black" stroke="black" points="1076.65,-21.5 1086.65,-18 1076.65,-14.5 1076.65,-21.5"/>
</g>
</g>
</svg>
